<?xml version="1.0" standalone="no"?>
<!DOCTYPE svg PUBLIC "-//W3C//DTD SVG 20010904//EN"
 "http://www.w3.org/TR/2001/REC-SVG-20010904/DTD/svg10.dtd">
<svg version="1.0" xmlns="http://www.w3.org/2000/svg"
 width="960.000000pt" height="960.000000pt" viewBox="0 0 960.000000 960.000000"
 preserveAspectRatio="xMidYMid meet">
<metadata>
Created by potrace 1.14, written by Peter Selinger 2001-2017
</metadata>
<g transform="translate(0.000000,960.000000) scale(0.100000,-0.100000)"
fill="#000000" stroke="none">
<path d="M4743 9050 c-10 -11 -21 -20 -25 -20 -5 0 -52 -21 -106 -46 -53 -26
-140 -67 -192 -91 -52 -25 -132 -63 -177 -84 -45 -22 -85 -39 -89 -39 -4 1
-10 -2 -13 -7 -6 -10 -53 -33 -146 -73 -27 -12 -57 -25 -65 -30 -36 -21 -198
-100 -204 -100 -5 0 -21 -9 -36 -20 -16 -11 -32 -20 -37 -19 -24 4 -45 -3 -60
-21 -10 -11 -33 -25 -53 -31 -19 -6 -40 -16 -46 -20 -18 -15 -104 -59 -104
-54 0 3 -15 -4 -32 -15 -18 -11 -43 -20 -55 -20 -12 0 -25 -4 -28 -10 -8 -13
-105 -61 -105 -52 0 4 -4 2 -8 -4 -9 -14 -121 -68 -179 -86 -24 -7 -43 -16
-43 -20 0 -9 -68 -45 -95 -50 -11 -1 -22 -6 -25 -9 -9 -11 -89 -49 -104 -49
-7 0 -16 -7 -20 -15 -3 -8 -12 -15 -19 -15 -16 0 -118 -47 -187 -85 -25 -14
-50 -25 -57 -25 -6 0 -18 -7 -27 -15 -8 -8 -23 -16 -33 -18 -10 -1 -29 -10
-43 -20 -13 -9 -28 -17 -33 -17 -7 0 -87 -38 -147 -69 -8 -4 -35 -17 -60 -29
-25 -11 -103 -48 -175 -82 -71 -34 -148 -70 -170 -80 -47 -22 -146 -71 -262
-129 -54 -28 -82 -48 -82 -59 0 -9 -2 -42 -5 -72 -20 -226 -27 -991 -13 -1410
5 -134 10 -247 13 -251 4 -8 12 -100 19 -224 2 -44 7 -96 10 -116 3 -20 8 -58
10 -85 10 -123 16 -191 21 -214 2 -14 7 -43 10 -65 3 -22 14 -95 25 -161 11
-67 22 -141 24 -165 1 -24 5 -51 9 -59 3 -8 7 -45 10 -82 2 -36 9 -75 14 -85
6 -10 17 -55 26 -98 8 -44 22 -113 31 -153 8 -40 13 -77 10 -83 -4 -5 -2 -9 3
-9 5 0 15 -21 21 -47 6 -27 20 -77 31 -113 10 -36 24 -90 31 -120 6 -30 15
-59 19 -65 8 -10 21 -52 61 -199 10 -38 23 -74 28 -80 5 -6 20 -45 34 -86 15
-41 36 -95 47 -118 12 -24 19 -50 16 -58 -3 -8 -2 -13 2 -10 4 2 14 -10 21
-27 38 -93 136 -295 183 -377 17 -30 38 -69 47 -86 9 -16 38 -58 64 -91 26
-34 47 -69 47 -77 0 -9 3 -16 8 -16 4 0 21 -20 37 -45 17 -24 33 -45 37 -45 4
0 19 -18 33 -39 13 -22 37 -53 52 -70 16 -16 48 -53 73 -81 25 -29 66 -75 91
-104 26 -28 50 -61 53 -73 4 -13 12 -24 17 -24 5 -1 13 -2 18 -3 7 -1 137
-118 248 -223 25 -24 48 -43 53 -43 5 0 15 -8 22 -17 16 -22 94 -83 105 -83 5
0 14 -9 21 -20 7 -11 17 -20 22 -20 11 0 140 -97 152 -114 3 -5 13 -11 22 -12
8 -1 30 -14 49 -28 19 -14 39 -26 45 -26 7 0 12 -5 12 -11 0 -5 15 -16 33 -24
17 -7 43 -23 56 -34 13 -12 30 -21 36 -21 7 0 18 -7 26 -16 7 -9 41 -30 76
-46 35 -17 63 -34 63 -38 0 -4 25 -18 55 -31 30 -13 55 -27 55 -31 0 -3 13 -9
29 -13 15 -3 38 -15 49 -25 12 -11 26 -20 33 -20 6 0 34 -13 62 -28 29 -16 72
-36 96 -46 25 -9 57 -26 73 -37 15 -11 28 -18 28 -14 0 3 18 -4 40 -15 21 -11
44 -20 50 -20 6 0 35 -11 63 -24 120 -56 144 -66 158 -66 8 0 23 -7 33 -15 11
-8 31 -15 46 -15 14 0 34 -6 45 -14 51 -35 215 -60 231 -35 6 11 147 79 162
79 7 0 12 4 12 10 0 5 19 14 43 21 23 6 44 15 47 19 3 5 46 30 95 55 50 26
104 56 122 66 30 19 61 29 91 31 6 1 12 6 12 12 0 10 162 111 229 143 15 7 33
17 41 23 56 37 186 110 197 110 7 0 13 4 13 8 0 5 12 15 28 22 15 8 39 25 55
39 15 14 27 22 27 18 0 -7 115 68 138 90 7 7 17 13 22 13 5 0 15 6 22 13 11
11 40 31 140 99 15 10 31 18 36 18 5 0 23 16 39 35 17 19 35 35 41 35 6 0 16
9 22 20 6 11 23 23 37 26 15 4 37 19 50 34 13 16 34 31 48 34 14 4 23 10 20
15 -2 5 8 17 23 26 24 16 55 44 149 132 13 13 26 23 29 23 8 0 65 53 153 142
121 123 151 156 151 166 0 6 9 13 19 17 11 3 26 16 34 29 9 13 34 45 57 72 68
81 74 89 111 145 70 105 99 153 99 161 0 4 7 8 16 8 8 0 13 4 9 9 -3 5 -1 12
5 16 5 3 10 14 10 24 0 10 6 24 14 30 8 7 18 27 21 44 4 18 16 42 28 55 11 12
17 22 14 22 -4 0 13 38 37 84 25 46 42 87 38 90 -6 7 -2 17 46 116 12 25 22
48 22 52 0 4 4 17 9 30 5 13 9 26 10 31 0 4 8 21 16 37 9 17 13 30 9 30 -4 0
0 7 7 16 7 9 14 21 15 28 4 21 55 201 74 256 28 85 58 188 76 262 9 37 23 69
31 73 12 4 13 8 3 20 -6 8 -9 23 -5 36 4 12 8 27 9 33 1 6 7 20 13 31 6 11 9
28 8 37 -2 9 1 34 6 55 6 21 14 61 18 88 11 61 20 105 27 126 2 9 7 38 10 64
2 26 7 52 11 58 3 5 7 28 9 51 4 47 12 110 18 146 2 14 7 46 10 71 4 25 9 57
11 71 3 13 7 51 9 84 6 76 15 153 21 180 2 11 7 79 10 150 3 71 9 143 12 159
19 106 18 1048 -1 1250 -3 33 -8 105 -11 160 -3 55 -7 114 -9 130 -2 17 -7 57
-11 90 -4 33 -9 87 -10 120 -2 33 -5 69 -7 80 -4 20 -104 78 -268 156 -89 43
-223 109 -274 136 -22 12 -47 22 -53 22 -7 1 -13 5 -13 10 0 5 -14 12 -30 16
-17 4 -37 13 -44 21 -8 8 -23 15 -33 17 -10 1 -40 15 -67 30 -27 15 -52 27
-57 27 -5 0 -9 4 -9 9 0 5 -14 11 -32 15 -17 3 -40 14 -50 23 -10 9 -18 13
-18 10 0 -5 -125 57 -145 73 -5 4 -22 10 -37 14 -16 3 -28 11 -28 16 0 6 -6
10 -14 10 -7 0 -34 11 -60 25 -26 14 -53 25 -61 25 -7 0 -15 4 -17 8 -3 8 -83
48 -150 76 -21 8 -38 19 -38 24 0 5 -13 12 -29 15 -16 3 -36 13 -44 22 -9 8
-21 15 -28 15 -12 0 -165 70 -199 91 -8 5 -31 17 -50 27 -19 9 -37 20 -40 23
-3 3 -22 12 -42 18 -21 7 -40 17 -43 22 -4 5 -15 9 -25 9 -10 0 -25 6 -33 14
-7 8 -33 20 -55 27 -23 7 -42 15 -42 19 0 8 -122 70 -139 70 -6 0 -11 3 -11 8
0 4 -22 15 -50 25 -27 10 -50 22 -50 26 0 5 -13 11 -29 14 -16 3 -36 13 -44
22 -9 8 -19 15 -24 15 -4 0 -30 12 -58 25 -27 14 -56 25 -62 25 -7 0 -13 4
-13 9 0 4 -20 16 -45 25 -25 10 -45 22 -45 27 0 5 -11 9 -24 9 -13 0 -29 6
-35 14 -7 8 -37 24 -69 37 -63 25 -182 85 -196 100 -6 5 -18 9 -27 9 -10 0
-24 6 -31 13 -7 7 -33 21 -58 31 -25 10 -75 34 -111 52 -78 39 -131 44 -156
14z"/>
</g>
</svg>
